<svg xmlns="http://www.w3.org/2000/svg" viewBox="0 0 122 27">
  <!-- QR icon (purple) -->
  <path fill="#5e2fe0" fill-rule="evenodd" d="M4 4h6v6H4V4m16 0v6h-6V4h6m-6 11h2v-2h-2v-2h2v2h2v-2h2v2h-2v2h2v3h-2v2h-2v-2h-3v2h-2v-4h3v-1m2 0v3h2v-3h-2M4 20v-6h6v6H4M6 6v2h2V6H6m10 0v2h2V6h-2M6 16v2h2v-2H6M4 11h2v2H4v-2m5 0h4v4h-2v-2H9v-2m2-5h2v4h-2V6M2 3v19h20V3a1 1 0 0 1 2 0v19a2 2 0 0 1-2 2H2a2 2 0 0 1-2-2V3a1 1 0 0 1 2 0z"/>
  <!-- "OpenBin" in DM Sans Bold 700 (paths) -->
  <g fill="#1a1a2e">
    <path transform="translate(30,21.82) scale(0.022,-0.022)" d="M392 -12Q290 -12 212.0 34.0Q134 80 90.0 161.5Q46 243 46 350Q46 457 90.0 538.5Q134 620 212.0 666.0Q290 712 392 712Q495 712 573.0 666.0Q651 620 694.5 538.5Q738 457 738 350Q738 243 694.5 161.5Q651 80 573.0 34.0Q495 -12 392 -12ZM392 109Q456 109 502.5 138.5Q549 168 575.0 222.0Q601 276 601 350Q601 425 575.0 478.5Q549 532 502.5 561.0Q456 590 392 590Q329 590 282.0 561.0Q235 532 209.0 478.5Q183 425 183 350Q183 276 209.0 222.0Q235 168 282.0 138.5Q329 109 392 109Z"/>
    <path transform="translate(46.95,21.82) scale(0.022,-0.022)" d="M66 -220V504H186L201 434Q217 456 239.0 474.5Q261 493 291.5 504.5Q322 516 363 516Q434 516 488.0 481.0Q542 446 573.5 386.5Q605 327 605 251Q605 175 573.0 115.5Q541 56 487.0 22.0Q433 -12 364 -12Q308 -12 267.5 8.5Q227 29 201 65V-220ZM332 106Q372 106 402.5 124.0Q433 142 450.0 175.0Q467 208 467 251Q467 294 450.0 327.5Q433 361 402.5 379.5Q372 398 332 398Q293 398 262.5 379.5Q232 361 214.5 328.0Q197 295 197 252Q197 209 214.5 175.5Q232 142 262.5 124.0Q293 106 332 106Z"/>
    <path transform="translate(61.06,21.82) scale(0.022,-0.022)" d="M308 -12Q232 -12 173.5 20.5Q115 53 82.5 111.5Q50 170 50 247Q50 326 82.5 386.5Q115 447 173.0 481.5Q231 516 308 516Q383 516 439.0 483.0Q495 450 526.0 394.0Q557 338 557 267Q557 257 557.0 244.5Q557 232 555 219H146V301H421Q418 350 386.5 378.0Q355 406 308 406Q274 406 245.0 390.5Q216 375 199.5 343.0Q183 311 183 262V233Q183 192 198.5 161.5Q214 131 242.0 114.5Q270 98 307 98Q344 98 368.5 114.0Q393 130 405 155H543Q529 108 496.0 70.0Q463 32 415.0 10.0Q367 -12 308 -12Z"/>
    <path transform="translate(74,21.82) scale(0.022,-0.022)" d="M66 0V504H185L195 422Q218 464 260.5 490.0Q303 516 362 516Q425 516 468.0 490.0Q511 464 533.5 414.0Q556 364 556 291V0H422V278Q422 338 396.5 370.0Q371 402 318 402Q284 402 257.5 386.0Q231 370 216.0 340.5Q201 311 201 269V0Z"/>
    <path transform="translate(87.28,21.82) scale(0.022,-0.022)" d="M69 0V700H356Q429 700 479.0 677.0Q529 654 554.5 613.5Q580 573 580 520Q580 467 557.0 431.0Q534 395 496.5 375.5Q459 356 414 353L430 364Q478 362 515.5 338.5Q553 315 574.5 276.0Q596 237 596 191Q596 135 569.0 92.0Q542 49 491.0 24.5Q440 0 366 0ZM204 110H344Q399 110 429.0 135.0Q459 160 459 207Q459 254 428.0 280.5Q397 307 342 307H204ZM204 408H334Q387 408 414.5 432.0Q442 456 442 500Q442 543 414.5 567.5Q387 592 333 592H204Z"/>
    <path transform="translate(101.01,21.82) scale(0.022,-0.022)" d="M69 0V504H204V0ZM137 573Q101 573 77.5 594.5Q54 616 54 649Q54 682 77.5 703.5Q101 725 137 725Q174 725 197.5 703.5Q221 682 221 649Q221 616 197.5 594.5Q174 573 137 573Z"/>
    <path transform="translate(106.74,21.82) scale(0.022,-0.022)" d="M66 0V504H185L195 422Q218 464 260.5 490.0Q303 516 362 516Q425 516 468.0 490.0Q511 464 533.5 414.0Q556 364 556 291V0H422V278Q422 338 396.5 370.0Q371 402 318 402Q284 402 257.5 386.0Q231 370 216.0 340.5Q201 311 201 269V0Z"/>
  </g>
</svg>
